<svg width="201" height="44" viewBox="0 0 201 44" fill="none" xmlns="http://www.w3.org/2000/svg">
<path d="M11.4002 34.56C8.81349 34.56 6.69349 34 5.04015 32.88C3.38682 31.76 2.38682 30.16 2.04015 28.08L6.68015 26.88C6.86682 27.8133 7.17349 28.5467 7.60015 29.08C8.05349 29.6133 8.60015 30 9.24015 30.24C9.90682 30.4533 10.6268 30.56 11.4002 30.56C12.5735 30.56 13.4402 30.36 14.0002 29.96C14.5602 29.5333 14.8402 29.0133 14.8402 28.4C14.8402 27.7867 14.5735 27.32 14.0402 27C13.5068 26.6533 12.6535 26.3733 11.4802 26.16L10.3602 25.96C8.97349 25.6933 7.70682 25.3333 6.56015 24.88C5.41349 24.4 4.49349 23.7467 3.80015 22.92C3.10682 22.0933 2.76015 21.0267 2.76015 19.72C2.76015 17.7467 3.48015 16.24 4.92015 15.2C6.36015 14.1333 8.25349 13.6 10.6002 13.6C12.8135 13.6 14.6535 14.0933 16.1202 15.08C17.5868 16.0667 18.5468 17.36 19.0002 18.96L14.3202 20.4C14.1068 19.3867 13.6668 18.6667 13.0002 18.24C12.3602 17.8133 11.5602 17.6 10.6002 17.6C9.64015 17.6 8.90682 17.7733 8.40015 18.12C7.89349 18.44 7.64015 18.8933 7.64015 19.48C7.64015 20.12 7.90682 20.6 8.44015 20.92C8.97349 21.2133 9.69349 21.44 10.6002 21.6L11.7202 21.8C13.2135 22.0667 14.5602 22.4267 15.7602 22.88C16.9868 23.3067 17.9468 23.9333 18.6402 24.76C19.3602 25.56 19.7202 26.6533 19.7202 28.04C19.7202 30.12 18.9602 31.7333 17.4402 32.88C15.9468 34 13.9335 34.56 11.4002 34.56ZM23.3367 34V14.16H28.2967V16.32H29.0167C29.3634 15.6533 29.9367 15.08 30.7367 14.6C31.5367 14.0933 32.5901 13.84 33.8967 13.84C35.3101 13.84 36.4434 14.12 37.2967 14.68C38.1501 15.2133 38.8034 15.92 39.2567 16.8H39.9767C40.4301 15.9467 41.0701 15.24 41.8967 14.68C42.7234 14.12 43.8967 13.84 45.4167 13.84C46.6434 13.84 47.7501 14.1067 48.7367 14.64C49.7501 15.1467 50.5501 15.9333 51.1367 17C51.7501 18.04 52.0567 19.36 52.0567 20.96V34H47.0167V21.32C47.0167 20.2267 46.7367 19.4133 46.1767 18.88C45.6167 18.32 44.8301 18.04 43.8167 18.04C42.6701 18.04 41.7767 18.4133 41.1367 19.16C40.5234 19.88 40.2167 20.92 40.2167 22.28V34H35.1767V21.32C35.1767 20.2267 34.8967 19.4133 34.3367 18.88C33.7767 18.32 32.99 18.04 31.9767 18.04C30.8301 18.04 29.9367 18.4133 29.2967 19.16C28.6834 19.88 28.3767 20.92 28.3767 22.28V34H23.3367ZM59.8373 34.56C58.7707 34.56 57.864 34.2133 57.1173 33.52C56.3973 32.8 56.0373 31.88 56.0373 30.76C56.0373 29.64 56.3973 28.7333 57.1173 28.04C57.864 27.32 58.7707 26.96 59.8373 26.96C60.9307 26.96 61.8373 27.32 62.5573 28.04C63.2773 28.7333 63.6373 29.64 63.6373 30.76C63.6373 31.88 63.2773 32.8 62.5573 33.52C61.8373 34.2133 60.9307 34.56 59.8373 34.56ZM59.8373 21.2C58.7707 21.2 57.864 20.8533 57.1173 20.16C56.3973 19.44 56.0373 18.52 56.0373 17.4C56.0373 16.28 56.3973 15.3733 57.1173 14.68C57.864 13.96 58.7707 13.6 59.8373 13.6C60.9307 13.6 61.8373 13.96 62.5573 14.68C63.2773 15.3733 63.6373 16.28 63.6373 17.4C63.6373 18.52 63.2773 19.44 62.5573 20.16C61.8373 20.8533 60.9307 21.2 59.8373 21.2ZM64.9914 43.84V39.52C67.9247 39.52 70.1114 38.68 71.5514 37C72.9914 35.3467 73.7114 32.7467 73.7114 29.2V18.4C73.7114 14.8533 72.9914 12.2533 71.5514 10.6C70.1114 8.92 67.9247 8.08 64.9914 8.08V3.76C67.9781 3.76 70.4714 4.28 72.4714 5.32C74.4981 6.36 76.0181 7.94667 77.0314 10.08C78.0714 12.2133 78.5914 14.9333 78.5914 18.24V29.36C78.5914 32.6667 78.0714 35.3867 77.0314 37.52C76.0181 39.6533 74.4981 41.24 72.4714 42.28C70.4714 43.32 67.9781 43.84 64.9914 43.84ZM91.6173 34.56C89.644 34.56 87.8973 34.1467 86.3773 33.32C84.884 32.4667 83.7107 31.28 82.8573 29.76C82.0307 28.2133 81.6173 26.4 81.6173 24.32V23.84C81.6173 21.76 82.0307 19.96 82.8573 18.44C83.684 16.8933 84.844 15.7067 86.3373 14.88C87.8307 14.0267 89.564 13.6 91.5373 13.6C93.484 13.6 95.1773 14.04 96.6173 14.92C98.0573 15.7733 99.1773 16.9733 99.9773 18.52C100.777 20.04 101.177 21.8133 101.177 23.84V25.56H86.7373C86.7907 26.92 87.2973 28.0267 88.2573 28.88C89.2173 29.7333 90.3907 30.16 91.7773 30.16C93.1907 30.16 94.2307 29.8533 94.8973 29.24C95.564 28.6267 96.0707 27.9467 96.4173 27.2L100.537 29.36C100.164 30.0533 99.6173 30.8133 98.8973 31.64C98.204 32.44 97.2707 33.1333 96.0973 33.72C94.924 34.28 93.4307 34.56 91.6173 34.56ZM86.7773 21.8H96.0573C95.9507 20.6533 95.484 19.7333 94.6573 19.04C93.8573 18.3467 92.804 18 91.4973 18C90.1373 18 89.0573 18.3467 88.2573 19.04C87.4573 19.7333 86.964 20.6533 86.7773 21.8ZM113.103 34.56C110.517 34.56 108.397 34 106.743 32.88C105.09 31.76 104.09 30.16 103.743 28.08L108.383 26.88C108.57 27.8133 108.877 28.5467 109.303 29.08C109.757 29.6133 110.303 30 110.943 30.24C111.61 30.4533 112.33 30.56 113.103 30.56C114.277 30.56 115.143 30.36 115.703 29.96C116.263 29.5333 116.543 29.0133 116.543 28.4C116.543 27.7867 116.277 27.32 115.743 27C115.21 26.6533 114.357 26.3733 113.183 26.16L112.063 25.96C110.677 25.6933 109.41 25.3333 108.263 24.88C107.117 24.4 106.197 23.7467 105.503 22.92C104.81 22.0933 104.463 21.0267 104.463 19.72C104.463 17.7467 105.183 16.24 106.623 15.2C108.063 14.1333 109.957 13.6 112.303 13.6C114.517 13.6 116.357 14.0933 117.823 15.08C119.29 16.0667 120.25 17.36 120.703 18.96L116.023 20.4C115.81 19.3867 115.37 18.6667 114.703 18.24C114.063 17.8133 113.263 17.6 112.303 17.6C111.343 17.6 110.61 17.7733 110.103 18.12C109.597 18.44 109.343 18.8933 109.343 19.48C109.343 20.12 109.61 20.6 110.143 20.92C110.677 21.2133 111.397 21.44 112.303 21.6L113.423 21.8C114.917 22.0667 116.263 22.4267 117.463 22.88C118.69 23.3067 119.65 23.9333 120.343 24.76C121.063 25.56 121.423 26.6533 121.423 28.04C121.423 30.12 120.663 31.7333 119.143 32.88C117.65 34 115.637 34.56 113.103 34.56ZM126.64 34L123.84 14.16H128.84L130.6 30.6H131.32L133.88 14.16H141.96L144.52 30.6H145.24L147 14.16H152L149.2 34H140.84L138.28 17.56H137.56L135 34H126.64ZM161.767 34.56C160.354 34.56 159.087 34.32 157.967 33.84C156.847 33.3333 155.954 32.6133 155.287 31.68C154.647 30.72 154.327 29.56 154.327 28.2C154.327 26.84 154.647 25.7067 155.287 24.8C155.954 23.8667 156.86 23.1733 158.007 22.72C159.18 22.24 160.514 22 162.007 22H167.447V20.88C167.447 19.9467 167.154 19.1867 166.567 18.6C165.98 17.9867 165.047 17.68 163.767 17.68C162.514 17.68 161.58 17.9733 160.967 18.56C160.354 19.12 159.954 19.8533 159.767 20.76L155.127 19.2C155.447 18.1867 155.954 17.2667 156.647 16.44C157.367 15.5867 158.314 14.9067 159.487 14.4C160.687 13.8667 162.14 13.6 163.847 13.6C166.46 13.6 168.527 14.2533 170.047 15.56C171.567 16.8667 172.327 18.76 172.327 21.24V28.64C172.327 29.44 172.7 29.84 173.447 29.84H175.047V34H171.687C170.7 34 169.887 33.76 169.247 33.28C168.607 32.8 168.287 32.16 168.287 31.36V31.32H167.527C167.42 31.64 167.18 32.0667 166.807 32.6C166.434 33.1067 165.847 33.56 165.047 33.96C164.247 34.36 163.154 34.56 161.767 34.56ZM162.647 30.48C164.06 30.48 165.207 30.0933 166.087 29.32C166.994 28.52 167.447 27.4667 167.447 26.16V25.76H162.367C161.434 25.76 160.7 25.96 160.167 26.36C159.634 26.76 159.367 27.32 159.367 28.04C159.367 28.76 159.647 29.3467 160.207 29.8C160.767 30.2533 161.58 30.48 162.647 30.48ZM177.932 42V14.16H182.892V16.56H183.612C184.065 15.7867 184.772 15.1067 185.732 14.52C186.692 13.9067 188.065 13.6 189.852 13.6C191.452 13.6 192.932 14 194.292 14.8C195.652 15.5733 196.745 16.72 197.572 18.24C198.399 19.76 198.812 21.6 198.812 23.76V24.4C198.812 26.56 198.399 28.4 197.572 29.92C196.745 31.44 195.652 32.6 194.292 33.4C192.932 34.1733 191.452 34.56 189.852 34.56C188.652 34.56 187.639 34.4133 186.812 34.12C186.012 33.8533 185.359 33.5067 184.852 33.08C184.372 32.6267 183.985 32.1733 183.692 31.72H182.972V42H177.932ZM188.332 30.16C189.905 30.16 191.199 29.6667 192.212 28.68C193.252 27.6667 193.772 26.2 193.772 24.28V23.88C193.772 21.96 193.252 20.5067 192.212 19.52C191.172 18.5067 189.879 18 188.332 18C186.785 18 185.492 18.5067 184.452 19.52C183.412 20.5067 182.892 21.96 182.892 23.88V24.28C182.892 26.2 183.412 27.6667 184.452 28.68C185.492 29.6667 186.785 30.16 188.332 30.16Z" fill="#17193D"/>
</svg>
